<svg xmlns="http://www.w3.org/2000/svg" xmlns:xlink="http://www.w3.org/1999/xlink" width="500" zoomAndPan="magnify" viewBox="0 0 375 374.999991" height="500" preserveAspectRatio="xMidYMid meet" version="1.0"><defs><g/><clipPath id="a3430f773a"><path d="M 282.230469 156.257812 L 309 156.257812 L 309 183 L 282.230469 183 Z M 282.230469 156.257812 " clip-rule="nonzero"/></clipPath><clipPath id="63ffb06562"><path d="M 282.230469 184 L 309 184 L 309 211 L 282.230469 211 Z M 282.230469 184 " clip-rule="nonzero"/></clipPath><clipPath id="33bd351d96"><path d="M 310 156.257812 L 336.980469 156.257812 L 336.980469 183 L 310 183 Z M 310 156.257812 " clip-rule="nonzero"/></clipPath><clipPath id="9e69ca05c3"><path d="M 310 184 L 336.980469 184 L 336.980469 211 L 310 211 Z M 310 184 " clip-rule="nonzero"/></clipPath></defs><g clip-path="url(#a3430f773a)"><path fill="#cb6ce6" d="M 308.226562 156.277344 L 304.773438 156.65625 L 301.460938 157.449219 L 298.324219 158.632812 L 295.382812 160.175781 L 292.664062 162.054688 L 290.199219 164.238281 L 288.015625 166.703125 L 286.136719 169.421875 L 284.59375 172.363281 L 283.410156 175.503906 L 282.617188 178.8125 L 282.238281 182.265625 L 300.777344 182.265625 C 301.609375 178.136719 304.09375 175.652344 308.230469 174.816406 L 308.226562 156.277344 " fill-opacity="1" fill-rule="nonzero"/></g><g clip-path="url(#63ffb06562)"><path fill="#8c52ff" d="M 300.773438 184.789062 L 282.234375 184.789062 L 282.617188 188.242188 L 283.410156 191.550781 L 284.59375 194.691406 L 286.136719 197.632812 L 288.015625 200.351562 L 290.199219 202.816406 L 292.664062 205.003906 L 295.382812 206.878906 L 298.324219 208.425781 L 301.464844 209.605469 L 304.773438 210.402344 L 308.230469 210.777344 L 308.230469 192.242188 C 304.097656 191.40625 301.609375 188.921875 300.773438 184.789062 Z M 300.773438 184.789062 " fill-opacity="1" fill-rule="nonzero"/></g><g clip-path="url(#33bd351d96)"><path fill="#ff66c4" d="M 310.75 156.277344 L 310.75 174.816406 C 314.886719 175.652344 317.371094 178.136719 318.203125 182.265625 L 336.738281 182.265625 L 336.363281 178.8125 L 335.570312 175.503906 L 334.386719 172.363281 L 332.84375 169.421875 L 330.964844 166.703125 L 328.78125 164.238281 L 326.316406 162.054688 L 323.597656 160.175781 L 320.65625 158.632812 L 317.515625 157.449219 L 314.207031 156.65625 L 310.75 156.277344 " fill-opacity="1" fill-rule="nonzero"/></g><g clip-path="url(#9e69ca05c3)"><path fill="#5e17eb" d="M 336.734375 184.789062 L 318.199219 184.789062 C 317.367188 188.921875 314.882812 191.40625 310.746094 192.242188 L 310.75 210.777344 L 314.203125 210.402344 L 317.515625 209.609375 L 320.652344 208.425781 L 323.597656 206.878906 L 326.3125 205.003906 L 328.777344 202.816406 L 330.964844 200.351562 L 332.84375 197.632812 L 334.386719 194.691406 L 335.570312 191.550781 L 336.363281 188.242188 Z M 336.734375 184.789062 " fill-opacity="0.996" fill-rule="nonzero"/></g><g fill="#5e17eb" fill-opacity="1"><g transform="translate(37.500002, 207.574173)"><g><path d="M 14.71875 -0.453125 L 14.265625 0 L 0.453125 0 L 0 -0.453125 L 0 -64.421875 L 0.625 -64.875 L 14.265625 -64.875 L 14.8125 -64.328125 Z M 18.234375 -14.71875 C 20.367188 -12.820312 22.867188 -11.875 25.734375 -11.875 C 29.046875 -11.875 31.875 -13.132812 34.21875 -15.65625 C 36.5625 -18.1875 37.734375 -21.242188 37.734375 -24.828125 C 37.734375 -28.410156 36.5625 -31.460938 34.21875 -33.984375 C 31.875 -36.515625 29.046875 -37.78125 25.734375 -37.78125 C 22.867188 -37.78125 20.367188 -36.832031 18.234375 -34.9375 L 18.234375 -48.125 C 20.703125 -49.082031 23.351562 -49.5625 26.1875 -49.5625 C 32.53125 -49.5625 37.941406 -47.140625 42.421875 -42.296875 C 46.910156 -37.453125 49.15625 -31.597656 49.15625 -24.734375 C 49.15625 -17.878906 46.910156 -12.023438 42.421875 -7.171875 C 37.941406 -2.328125 32.53125 0.09375 26.1875 0.09375 C 23.351562 0.09375 20.703125 -0.390625 18.234375 -1.359375 Z M 18.234375 -14.71875 "/></g></g></g><g fill="#5e17eb" fill-opacity="1"><g transform="translate(143.017538, 207.213406)"><g><path d="M 34.4375 -49.5625 L 48.4375 -49.5625 L 32.8125 -6.640625 L 25.59375 -25.234375 Z M 31.78125 -1.359375 L 31.78125 3.203125 C 31.601562 7.898438 30.609375 11.285156 28.796875 13.359375 C 26.992188 16.640625 23.414062 18.398438 18.0625 18.640625 L 9.9375 18.640625 L 9.390625 17.921875 L 9.4375 7.265625 L 10.0625 6.6875 L 13.859375 6.59375 C 16.421875 6.40625 17.804688 5.125 18.015625 2.75 L 18.015625 0 L 17.921875 0 L -0.140625 -49.5625 L 13.859375 -49.5625 Z M 31.78125 -1.359375 "/></g></g></g><g fill="#8c52ff" fill-opacity="1"><g transform="translate(197.855382, 207.574173)"><g><path d="M 14.671875 14.890625 L 14.125 15.4375 L 0.625 15.4375 L 0 14.984375 L 0 -48.984375 L 0.453125 -49.4375 L 14.265625 -49.4375 L 14.71875 -48.984375 Z M 18.234375 -48.078125 C 20.703125 -49.035156 23.351562 -49.515625 26.1875 -49.515625 C 32.53125 -49.515625 37.941406 -47.09375 42.421875 -42.25 C 46.910156 -37.40625 49.15625 -31.550781 49.15625 -24.6875 C 49.15625 -17.832031 46.910156 -11.976562 42.421875 -7.125 C 37.941406 -2.28125 32.53125 0.140625 26.1875 0.140625 C 23.351562 0.140625 20.703125 -0.34375 18.234375 -1.3125 L 18.234375 -14.484375 C 20.367188 -12.585938 22.867188 -11.640625 25.734375 -11.640625 C 29.046875 -11.640625 31.875 -12.90625 34.21875 -15.4375 C 36.5625 -17.96875 37.734375 -21.023438 37.734375 -24.609375 C 37.734375 -28.179688 36.5625 -31.234375 34.21875 -33.765625 C 31.875 -36.296875 29.046875 -37.5625 25.734375 -37.5625 C 22.867188 -37.5625 20.367188 -36.613281 18.234375 -34.71875 Z M 18.234375 -48.078125 "/></g></g></g><g fill="#8c52ff" fill-opacity="1"><g transform="translate(253.458093, 207.574173)"><g><path d="M 25.59375 -37.65625 C 22.738281 -37.65625 20.347656 -36.851562 18.421875 -35.25 L 17.734375 -35.65625 L 17.78125 -47.078125 L 18.234375 -47.765625 C 20.910156 -49.023438 23.363281 -49.65625 25.59375 -49.65625 Z M 14.71875 -49.5625 L 14.71875 -0.453125 L 14.265625 0 L 0.453125 0 L 0 -0.453125 L 0 -49.5625 Z M 14.71875 -49.5625 "/></g></g></g><g fill="#5e17eb" fill-opacity="1"><g transform="translate(91.857867, 207.574173)"><g><path d="M 40.21875 -7.125 C 36.039062 -2.707031 31.078125 -0.285156 25.328125 0.140625 L 25.015625 -0.3125 L 25.015625 -11.5625 L 25.453125 -12.09375 C 27.921875 -12.488281 30.078125 -13.691406 31.921875 -15.703125 C 32.035156 -15.859375 32.15625 -15.992188 32.28125 -16.109375 L 40.765625 -7.765625 C 40.585938 -7.554688 40.40625 -7.34375 40.21875 -7.125 Z M 34.359375 -29.65625 C 33.816406 -31.039062 33.003906 -32.320312 31.921875 -33.5 C 30.054688 -35.476562 27.890625 -36.664062 25.421875 -37.0625 L 25.015625 -37.515625 L 25.015625 -49.109375 L 25.640625 -49.609375 C 31.234375 -49.160156 36.242188 -46.753906 40.671875 -42.390625 C 44.128906 -38.710938 46.070312 -34.46875 46.5 -29.65625 C 46.613281 -26.019531 46.34375 -22.984375 45.6875 -20.546875 L 12.78125 -20.546875 C 13.320312 -18.765625 14.253906 -17.148438 15.578125 -15.703125 C 17.316406 -13.785156 19.363281 -12.613281 21.71875 -12.1875 L 22.125 -11.515625 L 22.125 -0.3125 L 21.71875 0.09375 C 16.03125 -0.332031 11.09375 -2.738281 6.90625 -7.125 C 2.300781 -11.976562 0 -17.847656 0 -24.734375 C 0 -31.628906 2.300781 -37.515625 6.90625 -42.390625 C 11.09375 -46.785156 16.03125 -49.191406 21.71875 -49.609375 L 22.125 -49.15625 L 22.125 -37.328125 L 21.84375 -37.015625 C 19.46875 -36.628906 17.378906 -35.457031 15.578125 -33.5 C 14.523438 -32.320312 13.710938 -31.039062 13.140625 -29.65625 Z M 34.359375 -29.65625 "/></g></g></g></svg>