<svg viewBox="0 0 800 800" xmlns="http://www.w3.org/2000/svg">
  <defs>
    <linearGradient id="bgGrad" x1="0%" y1="0%" x2="100%" y2="100%">
      <stop offset="0%" style="stop-color:#f0f9ff;stop-opacity:1" />
      <stop offset="100%" style="stop-color:#e0f2fe;stop-opacity:1" />
    </linearGradient>
    <linearGradient id="screenGrad" x1="0%" y1="0%" x2="100%" y2="100%">
      <stop offset="0%" style="stop-color:#0284c7;stop-opacity:1" />
      <stop offset="100%" style="stop-color:#0369a1;stop-opacity:1" />
    </linearGradient>
    <linearGradient id="buttonGrad" x1="0%" y1="0%" x2="100%" y2="100%">
      <stop offset="0%" style="stop-color:#10b981;stop-opacity:1" />
      <stop offset="100%" style="stop-color:#059669;stop-opacity:1" />
    </linearGradient>
  </defs>

  <!-- Background -->
  <rect width="800" height="800" fill="url(#bgGrad)"/>

  <!-- Title -->
  <text x="400" y="60" font-size="48" font-weight="bold" text-anchor="middle" fill="#1e293b">
    Smart POS System
  </text>

  <!-- Terminal Device -->
  <rect x="80" y="100" width="640" height="640" rx="40" fill="#1f2937" stroke="#374151" stroke-width="4"/>
  
  <!-- Bezel -->
  <rect x="100" y="120" width="600" height="600" rx="32" fill="#111827" stroke="#1f2937" stroke-width="2"/>
  
  <!-- Screen Header -->
  <rect x="120" y="140" width="560" height="100" rx="12" fill="url(#screenGrad)"/>
  <text x="400" y="180" font-size="24" font-weight="bold" text-anchor="middle" fill="white">Table #5</text>
  <text x="400" y="210" font-size="14" text-anchor="middle" fill="#e0f2fe">2 Guests • 2:45 PM</text>

  <!-- Order Items Section -->
  <text x="140" y="270" font-size="14" font-weight="600" fill="#e0f2fe">Items:</text>

  <!-- Item 1 -->
  <rect x="140" y="290" width="520" height="60" rx="8" fill="#1f2937" stroke="#374151" stroke-width="1"/>
  <circle cx="170" cy="320" r="16" fill="#f59e0b"/>
  <text x="200" y="310" font-size="13" font-weight="600" fill="white">Margherita Pizza</text>
  <text x="200" y="330" font-size="11" fill="#9ca3af">Medium • Extra Cheese +$2</text>
  <text x="650" y="320" font-size="14" font-weight="bold" text-anchor="end" fill="#10b981">$14.99</text>

  <!-- Item 2 -->
  <rect x="140" y="365" width="520" height="60" rx="8" fill="#1f2937" stroke="#374151" stroke-width="1"/>
  <circle cx="170" cy="395" r="16" fill="#06b6d4"/>
  <text x="200" y="385" font-size="13" font-weight="600" fill="white">Caesar Salad</text>
  <text x="200" y="405" font-size="11" fill="#9ca3af">Dressing on side</text>
  <text x="650" y="395" font-size="14" font-weight="bold" text-anchor="end" fill="#10b981">$9.99</text>

  <!-- Item 3 -->
  <rect x="140" y="440" width="520" height="60" rx="8" fill="#1f2937" stroke="#374151" stroke-width="1"/>
  <circle cx="170" cy="470" r="16" fill="#ec4899"/>
  <text x="200" y="460" font-size="13" font-weight="600" fill="white">Coca Cola × 2</text>
  <text x="200" y="480" font-size="11" fill="#9ca3af">Cold • Ice</text>
  <text x="650" y="470" font-size="14" font-weight="bold" text-anchor="end" fill="#10b981">$5.98</text>

  <!-- Summary Section -->
  <rect x="140" y="520" width="520" height="90" rx="8" fill="#0f172a" stroke="#334155" stroke-width="2"/>
  
  <text x="160" y="545" font-size="12" fill="#94a3b8">Subtotal:</text>
  <text x="640" y="545" font-size="12" text-anchor="end" fill="white">$30.96</text>

  <text x="160" y="570" font-size="12" fill="#94a3b8">Tax (8%):</text>
  <text x="640" y="570" font-size="12" text-anchor="end" fill="white">$2.48</text>

  <line x1="160" y1="580" x2="640" y2="580" stroke="#334155" stroke-width="1"/>

  <text x="160" y="605" font-size="14" font-weight="bold" fill="white">Total:</text>
  <text x="640" y="605" font-size="16" font-weight="bold" text-anchor="end" fill="#10b981">$33.44</text>

  <!-- Payment Buttons -->
  <rect x="140" y="625" width="240" height="50" rx="8" fill="url(#buttonGrad)"/>
  <text x="260" y="657" font-size="14" font-weight="bold" text-anchor="middle" fill="white">💳 Card Pay</text>

  <rect x="400" y="625" width="240" height="50" rx="8" fill="#6366f1"/>
  <text x="520" y="657" font-size="14" font-weight="bold" text-anchor="middle" fill="white">💵 Cash</text>

  <!-- Status -->
  <circle cx="150" cy="700" r="6" fill="#10b981"/>
  <text x="170" y="705" font-size="12" fill="#0f172a" font-weight="600">Ready to Process</text>
</svg>
